<mxfile host="app.diagrams.net" modified="2023-07-04T06:56:57.391Z" agent="Mozilla/5.0 (Windows NT 10.0; Win64; x64; rv:109.0) Gecko/20100101 Firefox/114.0" version="21.5.2" etag="diO6bEuZLqu2k1Rwh0cZ" type="github">
  <diagram name="Page-1" id="ZwK1TVxV1vT6BhjGhmxK">
    <mxGraphModel>
      <root>
        <mxCell id="0" />
        <mxCell id="1" parent="0" />
      </root>
    </mxGraphModel>
  </diagram>
</mxfile>
